<svg width="18" height="18" viewBox="0 0 18 18" fill="none" xmlns="http://www.w3.org/2000/svg">
<path fill-rule="evenodd" clip-rule="evenodd" d="M15.7588 5.35904C15.2893 5.15504 14.7448 5.24354 14.3705 5.58854L12.7498 7.08854V5.99954C12.7498 4.75904 11.741 3.74954 10.4998 3.74954H3.74976C2.50926 3.74954 1.49976 4.75904 1.49976 5.99954V11.9995C1.49976 13.2408 2.50926 14.2495 3.74976 14.2495H10.4998C11.741 14.2495 12.7498 13.2408 12.7498 11.9995V10.9113L14.3705 12.4105C14.6113 12.6333 14.9225 12.7495 15.2398 12.7495C15.4145 12.7495 15.5908 12.7143 15.7588 12.6408C16.2155 12.4413 16.4998 12.0145 16.4998 11.5278V6.47204C16.4998 5.98529 16.2155 5.55854 15.7588 5.35904Z" fill="#222222"/>
<mask id="mask0" mask-type="alpha" maskUnits="userSpaceOnUse" x="1" y="3" width="16" height="12">
<path fill-rule="evenodd" clip-rule="evenodd" d="M15.7588 5.35904C15.2893 5.15504 14.7448 5.24354 14.3705 5.58854L12.7498 7.08854V5.99954C12.7498 4.75904 11.741 3.74954 10.4998 3.74954H3.74976C2.50926 3.74954 1.49976 4.75904 1.49976 5.99954V11.9995C1.49976 13.2408 2.50926 14.2495 3.74976 14.2495H10.4998C11.741 14.2495 12.7498 13.2408 12.7498 11.9995V10.9113L14.3705 12.4105C14.6113 12.6333 14.9225 12.7495 15.2398 12.7495C15.4145 12.7495 15.5908 12.7143 15.7588 12.6408C16.2155 12.4413 16.4998 12.0145 16.4998 11.5278V6.47204C16.4998 5.98529 16.2155 5.55854 15.7588 5.35904Z" fill="white"/>
</mask>
<g mask="url(#mask0)">
</g>
</svg>
