<svg width="18" height="18" viewBox="0 0 18 18" fill="none" xmlns="http://www.w3.org/2000/svg">
<path fill-rule="evenodd" clip-rule="evenodd" d="M12 8.25C12 9.9045 10.6545 11.25 9 11.25C7.3455 11.25 6 9.9045 6 8.25V4.5C6 2.8455 7.3455 1.5 9 1.5C10.6545 1.5 12 2.8455 12 4.5V8.25ZM13.5 7.5C13.9148 7.5 14.25 7.836 14.25 8.25C14.25 10.89 12.2902 13.074 9.75 13.44V15H11.3287C11.6985 15 12 15.3015 12 15.6713V15.8287C12 16.1985 11.6985 16.5 11.3287 16.5H6.67125C6.3015 16.5 6 16.1985 6 15.8287V15.6713C6 15.3015 6.3015 15 6.67125 15H8.25V13.44C5.70975 13.074 3.75 10.89 3.75 8.25C3.75 7.836 4.08525 7.5 4.5 7.5C4.91475 7.5 5.25 7.836 5.25 8.25C5.25 10.3177 6.93225 12 9 12C11.0677 12 12.75 10.3177 12.75 8.25C12.75 7.836 13.0852 7.5 13.5 7.5Z" fill="#222222"/>
<mask id="mask0" mask-type="alpha" maskUnits="userSpaceOnUse" x="3" y="1" width="12" height="16">
<path fill-rule="evenodd" clip-rule="evenodd" d="M12 8.25C12 9.9045 10.6545 11.25 9 11.25C7.3455 11.25 6 9.9045 6 8.25V4.5C6 2.8455 7.3455 1.5 9 1.5C10.6545 1.5 12 2.8455 12 4.5V8.25ZM13.5 7.5C13.9148 7.5 14.25 7.836 14.25 8.25C14.25 10.89 12.2902 13.074 9.75 13.44V15H11.3287C11.6985 15 12 15.3015 12 15.6713V15.8287C12 16.1985 11.6985 16.5 11.3287 16.5H6.67125C6.3015 16.5 6 16.1985 6 15.8287V15.6713C6 15.3015 6.3015 15 6.67125 15H8.25V13.44C5.70975 13.074 3.75 10.89 3.75 8.25C3.75 7.836 4.08525 7.5 4.5 7.5C4.91475 7.5 5.25 7.836 5.25 8.25C5.25 10.3177 6.93225 12 9 12C11.0677 12 12.75 10.3177 12.75 8.25C12.75 7.836 13.0852 7.5 13.5 7.5Z" fill="white"/>
</mask>
<g mask="url(#mask0)">
</g>
</svg>
