<svg width="18" height="18" viewBox="0 0 18 18" fill="none" xmlns="http://www.w3.org/2000/svg">
<path fill-rule="evenodd" clip-rule="evenodd" d="M9.00003 7.875C8.37978 7.875 7.87503 8.37975 7.87503 9C7.87503 9.62025 8.37978 10.125 9.00003 10.125C9.62028 10.125 10.125 9.62025 10.125 9C10.125 8.37975 9.62028 7.875 9.00003 7.875ZM9.00003 11.625C7.55253 11.625 6.37503 10.4475 6.37503 9C6.37503 7.5525 7.55253 6.375 9.00003 6.375C10.4475 6.375 11.625 7.5525 11.625 9C11.625 10.4475 10.4475 11.625 9.00003 11.625ZM16.419 7.73925L15.8288 5.8485C15.6878 5.39475 15.3803 5.028 14.964 4.815C14.5583 4.60725 14.097 4.572 13.665 4.716L13.41 4.80075C13.008 4.9365 12.5595 4.8615 12.2153 4.60275L12.135 4.542C11.8073 4.296 11.613 3.89475 11.6145 3.47025L11.616 3.261C11.6175 2.78475 11.436 2.3385 11.1038 2.00475C10.782 1.6815 10.3568 1.503 9.90528 1.50225L7.99503 1.5H7.99203C7.05153 1.5 6.28353 2.2815 6.27978 3.2445L6.27903 3.42525C6.27753 3.87375 6.07128 4.29675 5.72928 4.55775L5.63253 4.63125C5.24778 4.92375 4.74903 5.007 4.29978 4.854C3.88128 4.71075 3.43353 4.7415 3.03753 4.941C2.63253 5.14575 2.33328 5.50125 2.19453 5.9415L1.58253 7.88775C1.29228 8.81175 1.77978 9.78075 2.69253 10.0935L2.81553 10.1355C3.20403 10.2682 3.51678 10.6073 3.65478 11.0438L3.69603 11.1698C3.86028 11.6543 3.80328 12.165 3.52278 12.5625C2.98278 13.3298 3.14703 14.412 3.88953 14.9745L5.44353 16.155C5.74203 16.3815 6.09528 16.5 6.46053 16.5C6.54678 16.5 6.63378 16.494 6.72078 16.4805C7.17978 16.4085 7.58253 16.1573 7.85403 15.7725L8.02728 15.5265C8.27628 15.1725 8.65653 14.9632 9.09828 14.9513C9.53853 14.9265 9.95853 15.156 10.221 15.534L10.3095 15.663C10.5788 16.0515 10.9808 16.3065 11.4413 16.3807C11.898 16.4535 12.3533 16.3403 12.7245 16.0597L14.2703 14.8927C15.0158 14.331 15.1868 13.245 14.6513 12.471L14.4555 12.1898C14.2095 11.8343 14.1375 11.3715 14.262 10.9508C14.3978 10.4917 14.7368 10.1318 15.1695 9.98625L15.3203 9.936C16.2105 9.63825 16.7033 8.65275 16.419 7.73925Z" fill="#222222"/>
<mask id="mask0" mask-type="alpha" maskUnits="userSpaceOnUse" x="1" y="1" width="16" height="16">
<path fill-rule="evenodd" clip-rule="evenodd" d="M9.00003 7.875C8.37978 7.875 7.87503 8.37975 7.87503 9C7.87503 9.62025 8.37978 10.125 9.00003 10.125C9.62028 10.125 10.125 9.62025 10.125 9C10.125 8.37975 9.62028 7.875 9.00003 7.875ZM9.00003 11.625C7.55253 11.625 6.37503 10.4475 6.37503 9C6.37503 7.5525 7.55253 6.375 9.00003 6.375C10.4475 6.375 11.625 7.5525 11.625 9C11.625 10.4475 10.4475 11.625 9.00003 11.625ZM16.419 7.73925L15.8288 5.8485C15.6878 5.39475 15.3803 5.028 14.964 4.815C14.5583 4.60725 14.097 4.572 13.665 4.716L13.41 4.80075C13.008 4.9365 12.5595 4.8615 12.2153 4.60275L12.135 4.542C11.8073 4.296 11.613 3.89475 11.6145 3.47025L11.616 3.261C11.6175 2.78475 11.436 2.3385 11.1038 2.00475C10.782 1.6815 10.3568 1.503 9.90528 1.50225L7.99503 1.5H7.99203C7.05153 1.5 6.28353 2.2815 6.27978 3.2445L6.27903 3.42525C6.27753 3.87375 6.07128 4.29675 5.72928 4.55775L5.63253 4.63125C5.24778 4.92375 4.74903 5.007 4.29978 4.854C3.88128 4.71075 3.43353 4.7415 3.03753 4.941C2.63253 5.14575 2.33328 5.50125 2.19453 5.9415L1.58253 7.88775C1.29228 8.81175 1.77978 9.78075 2.69253 10.0935L2.81553 10.1355C3.20403 10.2682 3.51678 10.6073 3.65478 11.0438L3.69603 11.1698C3.86028 11.6543 3.80328 12.165 3.52278 12.5625C2.98278 13.3298 3.14703 14.412 3.88953 14.9745L5.44353 16.155C5.74203 16.3815 6.09528 16.5 6.46053 16.5C6.54678 16.5 6.63378 16.494 6.72078 16.4805C7.17978 16.4085 7.58253 16.1573 7.85403 15.7725L8.02728 15.5265C8.27628 15.1725 8.65653 14.9632 9.09828 14.9513C9.53853 14.9265 9.95853 15.156 10.221 15.534L10.3095 15.663C10.5788 16.0515 10.9808 16.3065 11.4413 16.3807C11.898 16.4535 12.3533 16.3403 12.7245 16.0597L14.2703 14.8927C15.0158 14.331 15.1868 13.245 14.6513 12.471L14.4555 12.1898C14.2095 11.8343 14.1375 11.3715 14.262 10.9508C14.3978 10.4917 14.7368 10.1318 15.1695 9.98625L15.3203 9.936C16.2105 9.63825 16.7033 8.65275 16.419 7.73925Z" fill="white"/>
</mask>
<g mask="url(#mask0)">
</g>
</svg>
